:SAMPLES-PER-SECOND 30
:FULLY-SPECIFIED
:DEGREES
255
root  5.983799837 40.55688813 2.695777848 -3.099975586 -67.93099976 6.521972656
lowerback  12.77000046 2.182339907 -3.327640057
upperback  4.723249912 2.331739902 -0.02385669947
thorax  -2.329090118 1.075670004 1.511229992
lowerneck  -6.029019833 11.9616003 1.134930015
upperneck  5.782289982 15.90680027 -0.3427479863
head  3.012520075 7.910880089 0.4222350121
lclavicle  0 -9.442270133e-015 7.951389973e-016
lhumerus  0.4297449887 -12.41810036 79.8792038
lradius  2.731706653e-031 -2.237548391e-031 140.6790009
lwrist  -7.062250077e-031 -1.765562519e-031 4.535729885
lhand  -1.496451383e-031 -27.76390076 20.11240005
lfingers  90 7.125020027 -90
lthumb  89.89689403 5.08795885 91.16245106
rclavicle  0 -9.442270133e-015 7.951389973e-016
rhumerus  9.626899719 27.24629974 -76.3219986
rradius  -2.569899044e-031 2.421665324e-031 136.701004
rwrist  1.412450015e-030 -0 -8.129779816
rhand  -7.920061211e-032 -33.2840004 9.303460121
rfingers  -90 -7.125020027 -90
rthumb  -92.93752616 -24.25625642 -97.11982154
rfemur  -22.94059944 15.27250004 4.339290142
rtibia  -0 0 50.88159943
rfoot  -4.517643164e-032 -12.30220032 1.290750027
rtoes  5.373923086 19.29304026 -105.8922705
lfemur  -23.6697998 4.37954998 -10.9052
ltibia  -0 0 49.52209854
lfoot  4.466671631e-032 -8.815529823 6.197519779
ltoes  -4.250644065 -19.5611806 -102.515957
256
root  5.868999977 40.36177688 2.711222303 -4.015991211 -67.54299927 7.104980469
lowerback  12.76729965 2.191550016 -3.413320065
upperback  4.50906992 2.335510015 -0.1102230027
thorax  -2.551320076 1.086689949 1.464709997
lowerneck  -6.003779888 11.79150009 0.9142789841
upperneck  6.207190037 15.68239975 -0.05667079985
head  3.107140064 7.800940037 0.5465930104
lclavicle  0 -9.442270133e-015 7.951389973e-016
lhumerus  0.1280339956 -12.51119995 79.77330017
lradius  2.730182912e-031 -2.239407356e-031 140.6399994
lwrist  -1.059337512e-030 -3.531125038e-031 4.857480049
lhand  -1.496451383e-031 -27.76390076 20.11240005
lfingers  90 7.125020027 -90
lthumb  89.89689403 5.08795885 91.16245106
rclavicle  0 -9.442270133e-015 7.951389973e-016
rhumerus  9.051480293 27.18729973 -76.55879974
rradius  -2.571208517e-031 2.420274943e-031 136.7319946
rwrist  7.062250077e-031 -0 -7.974480152
rhand  -7.920061211e-032 -33.2840004 9.303460121
rfingers  -90 -7.125020027 -90
rthumb  -92.93752616 -24.25625642 -97.11982154
rfemur  -21.84410095 15.72130013 4.639609814
rtibia  -0 0 50.90679932
rfoot  -4.560329676e-032 -14.55840015 -0.5596780181
rtoes  5.373923086 19.29304026 -105.8922705
lfemur  -23.04319954 4.033279896 -11.23869991
ltibia  -0 0 49.07139969
lfoot  -0 -10.59000015 8.516019821
ltoes  -4.250644065 -19.5611806 -102.515957
257
root  5.752511287 40.16177861 2.730311183 -5.036010742 -67.04499817 7.768005371
lowerback  12.54329967 2.177769899 -3.64218998
upperback  4.468460083 2.302259922 -0.1349630058
thorax  -2.477900028 1.070709944 1.578570008
lowerneck  -5.959879875 11.64690018 0.6421489716
upperneck  6.301519871 15.50730038 0.04564639926
head  3.097870111 7.711289883 0.6092140079
lclavicle  0 -9.442270133e-015 7.951389973e-016
lhumerus  -0.06452249736 -12.75 79.87059784
lradius  2.731628589e-031 -2.237643691e-031 140.677002
lwrist  -7.062250077e-031 -3.531125038e-031 4.67276001
lhand  -1.496451383e-031 -27.76390076 20.11240005
lfingers  90 7.125020027 -90
lthumb  89.89689403 5.08795885 91.16245106
rclavicle  0 -9.442270133e-015 7.951389973e-016
rhumerus  8.772259712 27.22520065 -76.62860107
rradius  -2.57108218e-031 2.420409151e-031 136.7290039
rwrist  0 -3.531125038e-031 -7.712100029
rhand  -7.920061211e-032 -33.2840004 9.303460121
rfingers  -90 -7.125020027 -90
rthumb  -92.93752616 -24.25625642 -97.11982154
rfemur  -20.67020035 15.99989986 4.956429958
rtibia  -0 0 50.88330078
rfoot  -4.608817485e-032 -16.72260094 -2.575910091
rtoes  5.373923086 19.29304026 -105.8922705
lfemur  -22.3845005 3.894269943 -11.63850021
ltibia  -0 0 48.97679901
lfoot  -0 -11.76039982 10.01889992
ltoes  -4.250644065 -19.5611806 -102.515957
258
root  5.637666747 39.98133442 2.740133278 -5.590026855 -66.53299713 7.992004395
lowerback  12.3991003 2.129040003 -3.777559996
upperback  4.366360188 2.233669996 -0.1007129997
thorax  -2.508599997 1.040359974 1.702819943
lowerneck  -5.908939838 11.59319973 0.2205460072
upperneck  6.286509991 15.45849991 0.2466370016
head  3.028640032 7.686019897 0.7230870128
lclavicle  0 -9.442270133e-015 7.951389973e-016
lhumerus  -0.2761180103 -12.80340004 80.01650238
lradius  2.732448392e-031 -2.236642533e-031 140.697998
lwrist  -7.062250077e-031 -0 4.222509861
lhand  -1.496451383e-031 -27.76390076 20.11240005
lfingers  90 7.125020027 -90
lthumb  89.89689403 5.08795885 91.16245106
rclavicle  0 -9.442270133e-015 7.951389973e-016
rhumerus  8.47012043 27.45739937 -76.72470093
rradius  -2.578252274e-031 2.412770036e-031 136.8990021
rwrist  7.062250077e-031 -0 -7.658500195
rhand  -7.920061211e-032 -33.2840004 9.303460121
rfingers  -90 -7.125020027 -90
rthumb  -92.93752616 -24.25625642 -97.11982154
rfemur  -19.55400085 16.21489906 5.487410069
rtibia  -0 0 50.88790131
rfoot  -4.65918602e-032 -18.67399979 -3.932660103
rtoes  5.373923086 19.29304026 -105.8922705
lfemur  -21.85840034 3.84513998 -11.80669975
ltibia  -0 0 49.1332016
lfoot  -0 -12.55770016 9.368960381
ltoes  -4.250644065 -19.5611806 -102.515957
